<?xml version="1.0" encoding="UTF-8" standalone="no"?>
<!-- Created with Inkscape (http://www.inkscape.org/) -->

<svg
   xmlns:dc="http://purl.org/dc/elements/1.1/"
   xmlns:cc="http://creativecommons.org/ns#"
   xmlns:rdf="http://www.w3.org/1999/02/22-rdf-syntax-ns#"
   xmlns:svg="http://www.w3.org/2000/svg"
   xmlns="http://www.w3.org/2000/svg"
   xmlns:sodipodi="http://sodipodi.sourceforge.net/DTD/sodipodi-0.dtd"
   xmlns:inkscape="http://www.inkscape.org/namespaces/inkscape"
   width="744.09448819"
   height="1052.3622047"
   id="svg2"
   version="1.1"
   inkscape:version="0.48.4 r9939"
   sodipodi:docname="New document 1">
  <defs
     id="defs4" />
  <sodipodi:namedview
     id="base"
     pagecolor="#ffffff"
     bordercolor="#666666"
     borderopacity="1.0"
     inkscape:pageopacity="0.0"
     inkscape:pageshadow="2"
     inkscape:zoom="0.24748737"
     inkscape:cx="1437.1825"
     inkscape:cy="775.94156"
     inkscape:document-units="px"
     inkscape:current-layer="layer1"
     showgrid="false"
     inkscape:window-width="1366"
     inkscape:window-height="705"
     inkscape:window-x="-8"
     inkscape:window-y="-8"
     inkscape:window-maximized="1" />
  <metadata
     id="metadata7">
    <rdf:RDF>
      <cc:Work
         rdf:about="">
        <dc:format>image/svg+xml</dc:format>
        <dc:type
           rdf:resource="http://purl.org/dc/dcmitype/StillImage" />
        <dc:title></dc:title>
      </cc:Work>
    </rdf:RDF>
  </metadata>
  <g
     inkscape:label="Layer 1"
     inkscape:groupmode="layer"
     id="layer1">
    <flowRoot
       xml:space="preserve"
       id="flowRoot2985"
       style="fill:black;stroke:none;stroke-opacity:1;stroke-width:1px;stroke-linejoin:miter;stroke-linecap:butt;fill-opacity:1;font-family:Fontdiner Swanky;font-style:normal;font-weight:normal;font-size:40px;line-height:125%;letter-spacing:0px;word-spacing:0px;-inkscape-font-specification:Fontdiner Swanky;font-stretch:normal;font-variant:normal"><flowRegion
         id="flowRegion2987"><rect
           id="rect2989"
           width="311.42856"
           height="148.57143"
           x="62.857143"
           y="83.790756"
           style="-inkscape-font-specification:Fontdiner Swanky;font-family:Fontdiner Swanky;font-weight:normal;font-style:normal;font-stretch:normal;font-variant:normal" /></flowRegion><flowPara
         id="flowPara2991"></flowPara></flowRoot>    <flowRoot
       xml:space="preserve"
       id="flowRoot3015"
       style="font-size:40px;font-style:normal;font-variant:normal;font-weight:normal;font-stretch:normal;line-height:125%;letter-spacing:0px;word-spacing:0px;fill:#000000;fill-opacity:1;stroke:none;font-family:Fontdiner Swanky;-inkscape-font-specification:Fontdiner Swanky"
       transform="translate(16.306019,17.286435)"><flowRegion
         id="flowRegion3017"><rect
           id="rect3019"
           width="362.85715"
           height="228.57143"
           x="22.857143"
           y="63.790752"
           style="font-style:normal;font-variant:normal;font-weight:normal;font-stretch:normal;font-family:Fontdiner Swanky;-inkscape-font-specification:Fontdiner Swanky" /></flowRegion><flowPara
         id="flowPara3021">Money: </flowPara></flowRoot>    <g
       id="g3075"
       transform="translate(-113.13708,96.974645)">
      <rect
         y="229.42889"
         x="230.68884"
         height="514.43799"
         width="323.00937"
         id="rect3049"
         style="opacity:0.98000004;fill:#ff0000;fill-opacity:1;stroke:#2aff80;stroke-width:0.84778899;stroke-opacity:0.57627115" />
      <g
         transform="matrix(0.80671217,0,0,0.9016389,572.812,-73.069489)"
         id="g3041">
        <g
           id="g3025">
          <rect
             y="386.58685"
             x="-405.77527"
             height="460.12207"
             width="365.83633"
             id="rect2993"
             style="opacity:0.98000004;fill:#2aff80;fill-opacity:1;stroke:#0b0b28;stroke-width:0.87795013;stroke-opacity:0.57627115" />
          <path
             transform="matrix(0.85946029,0,0,0.80108336,23.930741,269.73131)"
             d="m -74.285706,156.6479 c 0,43.3938 -95.299394,78.57143 -212.857144,78.57143 C -404.70061,235.21933 -500,200.0417 -500,156.6479 c 0,-43.3938 95.29939,-78.571423 212.85715,-78.571423 117.55775,0 212.857144,35.177623 212.857144,78.571423 z"
             sodipodi:ry="78.571426"
             sodipodi:rx="212.85715"
             sodipodi:cy="156.6479"
             sodipodi:cx="-287.14285"
             id="path2995"
             style="opacity:0.98000004;fill:#2aff80;fill-opacity:1;stroke:#0b0b28;stroke-opacity:0.57627115"
             sodipodi:type="arc" />
          <path
             transform="matrix(0.86616414,0,0,0.80106287,25.855694,724.02023)"
             d="m -74.285706,156.6479 c 0,43.3938 -95.299394,78.57143 -212.857144,78.57143 C -404.70061,235.21933 -500,200.0417 -500,156.6479 c 0,-43.3938 95.29939,-78.571423 212.85715,-78.571423 117.55775,0 212.857144,35.177623 212.857144,78.571423 z"
             sodipodi:ry="78.571426"
             sodipodi:rx="212.85715"
             sodipodi:cy="156.6479"
             sodipodi:cx="-287.14285"
             id="path2995-1"
             style="opacity:0.98000004;fill:#2aff80;fill-opacity:1;stroke:#0b0b28;stroke-opacity:0.57627115"
             sodipodi:type="arc" />
          <path
             inkscape:connector-curvature="0"
             d="m -375.97083,413.58764 c 7.62964,9.15969 16.97212,16.14046 27.57386,21.44768 11.47447,4.69676 23.79307,6.25723 36.06977,6.98978 8.79118,0.37046 17.5921,0.21801 26.38766,0.16313 10.83352,-0.22685 21.63894,-1.45453 32.45589,-2.18927 12.14275,-0.73657 24.31446,-0.63926 36.47344,-0.65064 13.42368,0.007 26.8473,-0.0448 40.27083,-0.10246 8.55674,-0.11554 17.11152,0.22232 25.65049,-0.38172 10.25522,-2.42106 20.33386,-5.91963 30.21509,-9.60501 -3.63023,3.46735 7.34123,-3.57104 5.59022,-2.51731 -7.68862,4.62687 -14.9706,9.99615 -23.03477,13.93215 -1.3575,0.66257 -2.99933,-0.37001 -4.5051,-0.49037 -5.58998,-0.44683 -8.91779,-0.46428 -14.68817,-0.63645 -31.11118,-1.589 -61.98706,2.81021 -92.77843,6.5824 -23.32023,2.82451 -46.71206,5.5881 -69.70301,10.49288 5.30964,-3.93304 -8.45327,3.25756 -6.49754,2.09423 8.15347,-4.84994 15.88698,-10.55548 24.59303,-14.32455 2.28017,-0.98715 4.95774,0.34792 7.44004,0.45662 8.18997,0.35865 14.38112,0.38285 22.69371,0.50573 39.22804,0.309 78.46666,0.73587 117.68801,-0.1943 18.93083,-1.91497 40.94699,-0.21009 57.843564,-10.6931 -26.992994,15.63246 -13.075014,11.65556 -34.715694,7.52871 -5.07119,-1.15841 -10.35955,-0.89395 -15.46646,-1.70681 -1.25172,-0.19923 -6.15169,-1.44758 -3.29053,-3.52792 7.59514,-5.5224 16.17856,-9.53866 24.26785,-14.30799 9.15184,-1.88228 18.38444,-3.53256 27.259037,-6.50058 8.383209,-3.9447 16.946483,-7.47316 25.751142,-10.36746 6.864033,-2.08409 13.045718,-5.76827 19.913312,-7.80116 2.360829,-1.19133 5.060491,-1.55134 7.395864,-2.79747 0.386692,-0.20634 1.417627,-1.0297 1.048121,-0.79397 -23.020536,14.68625 -13.466267,12.97628 -24.207115,14.58003 -0.888587,0.11975 -1.790291,0.16565 -2.665761,0.35924 -2.023977,0.44756 -4.082596,0.90013 -5.956596,1.78609 -0.949405,0.44884 -3.526757,2.2761 -2.608069,1.76733 17.59196,-9.7424 25.395467,-15.28998 16.433387,-9.05157 -7.020595,6.24131 -10.125255,15.57324 -14.04462,23.82923 -5.397427,11.36947 -6.503621,13.29097 -12.429949,24.83255 -20.758383,35.01971 -40.237983,70.74149 -59.152753,106.78389 -10.85813,19.9008 -20.77297,40.44626 -33.74527,59.11122 -1.54578,2.22412 -8.42949,11.15039 -10.472,13.81193 -5.68926,6.51408 -7.50183,14.8287 -10.60129,22.6228 -3.47071,8.72765 -3.91611,8.72024 -8.92087,17.4494 -21.35527,32.19403 -43.08502,64.12212 -63.38943,96.99588 -8.41326,13.00126 -15.82291,26.61637 -24.12349,39.68589 -3.92094,6.17365 -7.63852,11.50061 -13.14407,16.25851 -25.98939,15.07676 -21.11634,16.66927 -42.08563,10.40899 -8.17942,-1.73703 -15.11368,-6.5484 -21.22849,-12.05487 -11.19363,-12.55008 11.81953,-21.99211 24.12576,-23.48044 9.05365,-0.72621 18.10091,-1.65426 27.10388,-2.89728 14.27259,-1.79763 28.64568,-2.53712 43.01083,-3.0943 8.67209,-0.81694 17.27556,-2.17772 25.96016,-2.86883 8.15862,-0.22351 16.26026,-0.51412 24.39215,-1.25134 4.95808,-0.50401 9.92788,-0.87034 14.89473,-1.27083 1.17314,-0.0946 2.34959,-0.15995 3.51783,-0.3028 0.51706,-0.0632 1.95315,-0.61936 1.53075,-0.31453 -7.12325,5.14066 -14.49227,9.9319 -21.7384,14.89784 -10.50515,-0.24387 -21.01364,-0.24222 -31.52097,-0.27004 -20.40828,-0.157 -40.81659,-0.16311 -61.22508,-0.0557 -1.57509,-1.62118 -11.68344,1.75413 -13.58,-0.27186 -0.69458,-0.74199 -1.76864,-2.34026 -0.92408,-2.90567 19.88399,-13.31192 16.38894,-12.47802 29.16112,-13.28614 15.6398,-0.90622 31.31246,-0.79929 46.97101,-0.76874 23.3486,0.0428 46.69704,-0.0336 70.04541,-0.12477 15.03024,-0.0422 30.06048,-0.0717 45.09079,-0.0644 11.5049,0.26509 22.83652,-1.72095 34.335,-1.31829 6.71001,0.28183 10.94094,3.95192 15.887712,7.87501 4.930095,2.96647 9.748199,6.24986 14.922945,8.77192 4.613565,1.89617 7.282955,6.06638 10.521707,9.58723 2.386776,3.67487 6.260981,6.19122 7.524885,10.49399 -4.352445,21.13341 -31.802113,15.34917 -45.455089,13.29255 -21.57869,-3.85166 -42.7572,-9.46228 -62.41882,-19.24519 -12.56312,-6.92573 -21.92754,-17.66072 -31.04593,-28.44638 -4.70014,-5.74659 -8.26328,-12.1378 -11.20592,-18.91335 -8.52414,-19.05304 -18.57814,-37.35467 -28.76559,-55.55535 -9.46346,-15.99024 -17.35214,-32.79672 -24.13463,-50.07232 -2.07341,-8.07082 -8.01789,-15.0072 -9.31956,-23.24105 0.52455,-6.87317 2.49097,-13.51096 5.09222,-19.85799 4.67575,-10.04865 7.46777,-20.64832 9.31157,-31.53321 1.2856,-8.60795 1.32958,-17.3058 2.45631,-25.92777 0.41344,-4.90864 1.37129,-9.50927 4.98099,-13.02367 0,0 23.76978,-9.23877 23.76978,-9.23877 l 0,0 c -4.76057,1.74015 -5.64109,6.47273 -6.07729,11.09471 -1.2355,8.66886 -1.39705,17.40823 -2.61995,26.08361 -1.74504,10.97944 -4.32654,21.75023 -8.86482,31.94595 -0.87798,2.1672 -2.02833,4.22794 -2.76305,6.44781 -1.30061,3.92965 -1.64003,8.22761 -2.75945,12.21195 0.39546,7.2635 6.95356,15.79684 8.50458,22.94639 6.57773,17.25036 14.26906,34.0244 23.46813,50.05548 10.16517,18.2836 20.31979,36.57929 29.72295,55.26977 2.94481,6.48891 6.34976,12.73733 10.74349,18.38032 8.7015,10.66768 17.80793,21.11021 30.06908,27.83664 19.52058,9.68226 40.56628,15.25455 62.087113,18.49629 4.968202,0.60081 9.311964,1.2452 14.254123,1.46644 1.377325,0.0617 2.761543,0.0938 4.136093,-0.0132 0.940363,-0.0732 3.560326,-1.05555 2.780488,-0.525 -18.086897,12.30529 -27.678488,12.26533 -18.500652,12.0912 0.02501,-3.74383 -5.282046,-6.08263 -6.758175,-9.32426 -2.994898,-3.38871 -5.61023,-7.10794 -9.97892,-8.85845 -5.16508,-2.87274 -10.30671,-5.83911 -15.17925,-9.18744 -4.56558,-3.66522 -8.6755,-6.54267 -14.8383,-6.61483 -11.37449,-0.25387 -22.65295,1.59295 -34.03879,1.19226 -14.95885,0.003 -29.9176,-0.0362 -44.87633,-0.092 -23.2755,-0.10753 -46.55165,-0.20444 -69.82706,-0.0181 -15.83322,0.18364 -31.69672,0.20615 -47.49217,1.4277 -1.50461,0.19032 -5.71219,1.50049 -4.51384,0.57095 5.99254,-4.64828 13.39667,-7.28609 19.30344,-12.04291 0.71135,-0.57286 -1.817,-1.0546 -1.91161,-1.96303 -0.0604,-0.58001 1.15017,0.21168 1.73247,0.24303 3.63508,0.19566 7.28656,-0.0541 10.91983,0.16212 20.47526,0.10022 40.95024,0.0773 61.42516,-0.0886 10.75451,-0.0257 21.51788,-0.17345 32.26801,0.12302 -6.54055,5.05477 -12.92525,10.31788 -19.62164,15.16429 -0.38621,0.27951 -0.95263,0.0412 -1.42847,0.0704 -1.13944,0.0699 -2.27854,0.14557 -3.41721,0.227 -4.93779,0.35316 -9.86965,0.78135 -14.79826,1.24446 -8.19407,0.73844 -16.38746,0.93064 -24.59768,1.38177 -8.5878,0.75021 -17.1203,2.03744 -25.72901,2.55513 -14.34834,0.51272 -28.70406,1.31868 -42.9315,3.33627 -9.06134,1.19088 -18.17485,2.00934 -27.21595,3.29734 -10.02694,3.71712 -2.901,1.26526 17.24769,-11.0319 0.44364,-0.27077 -1.00861,0.35514 -1.38802,0.71036 -0.89498,0.83793 -0.70501,1.89594 -0.12186,2.87684 0.48526,0.81627 1.22335,1.45276 1.83503,2.17914 5.95593,5.29163 12.60187,9.57827 20.55132,11.12384 4.09064,1.08903 8.95653,2.87121 13.2567,2.6635 7.4538,-0.36003 21.11026,-11.61174 -15.38463,10.53431 6.55052,-4.44936 9.83781,-9.11325 14.28962,-15.78 8.74781,-13.10018 16.37369,-26.90917 25.02403,-40.07201 20.19995,-32.52672 41.48802,-64.34377 62.34187,-96.45212 4.69479,-8.05183 5.51597,-8.68817 8.73238,-16.83855 3.15239,-7.98812 4.48141,-16.71295 10.34218,-23.40975 3.67184,-4.63614 7.55433,-9.11015 11.05843,-13.87434 13.62354,-18.52262 23.85573,-39.23646 34.86884,-59.33091 18.79352,-35.8225 37.85618,-71.50212 58.34591,-106.3913 4.77895,-9.41493 7.78252,-15.05909 12.082094,-24.53092 3.804238,-8.38061 6.577026,-17.63404 12.744628,-24.68123 11.233503,-8.68302 24.33304,-18.27277 39.013201,-19.06565 15.865779,3.07026 -17.878759,17.49962 -24.948737,19.43609 -6.65363,2.38047 -12.950512,5.68028 -19.742706,7.71444 -8.7363,3.10745 -17.23107,6.74861 -25.77878,10.31751 -8.99333,2.70257 -18.2956,4.09373 -27.30376,6.75535 6.29614,-4.06185 12.88219,-7.70614 18.88842,-12.18557 0.449,-0.33486 -1.99054,-0.57216 -1.47833,-0.79882 0.66151,-0.29274 1.39179,0.41076 2.10677,0.52073 5.15134,0.79228 10.41166,0.88135 15.52531,1.96955 4.34443,0.88795 13.267858,1.99964 16.239242,5.81522 0.585445,0.75178 1.831277,2.06434 1.07778,2.64757 -7.107172,5.50111 -15.263562,9.49316 -22.895342,14.23975 -17.64946,8.32283 -38.17136,7.42027 -57.15401,8.68712 -39.44345,0.59249 -78.89713,0.21878 -118.34379,0.58215 -5.99799,-0.0404 -16.95554,-0.0632 -23.20305,-0.28734 -2.64382,-0.0949 -9.11292,1.89792 -7.92294,-0.46487 6.95533,-13.81031 12.08353,-15.11408 22.48288,-17.32721 22.68764,-4.36656 45.71919,-6.67375 68.63858,-9.45312 31.20166,-3.77677 62.48234,-8.28082 94.00394,-7.0363 4.12711,0.10436 10.89854,0.16933 15.17316,0.64655 1.70568,0.19042 6.10702,-0.47311 5.07048,0.8948 -9.01211,11.89317 -13.19809,14.66314 -23.57467,18.19979 -10.01626,3.45438 -20.04469,7.30181 -30.53803,8.96281 -8.58732,0.48973 -17.18507,0.31672 -25.78418,0.2791 -13.33719,-0.077 -26.67484,-0.14891 -40.01221,-0.0701 -12.20183,0.0929 -24.4127,0.174 -36.59545,0.9335 -10.88688,0.71787 -21.74812,2.00706 -32.66055,2.15048 -8.80482,0.0573 -17.61891,0.12808 -26.41318,-0.38191 -12.45698,-1.00284 -24.91849,-2.92705 -36.47333,-7.93611 -10.82327,-5.65319 -20.33659,-12.93595 -28.51475,-22.05499 0,0 21.78356,-13.07882 21.78356,-13.07882 z"
             id="path3023"
             style="opacity:0.98000004;fill:#2aff80;fill-opacity:1;stroke:#00ff66;stroke-opacity:0.57627115" />
        </g>
        <path
           style="opacity:0.98000004;fill:#2aff80;fill-opacity:1;stroke:#2aff80;stroke-opacity:0.57627115"
           id="path3039"
           d="m -71.272885,397.76215 c 1.220735,11.18943 1.302273,22.46388 2.413255,33.65692 0.467661,3.92943 0.808304,8.03198 2.745383,11.581 0.332993,0.6101 0.647356,1.32525 1.252579,1.66702 0.333484,0.18831 1.435852,-0.51937 1.097505,-0.33994 -6.945072,3.68312 -13.956376,7.23996 -20.934564,10.85994 3.452995,-3.94555 4.347853,-9.77329 5.754049,-14.75679 1.405678,-5.27359 1.677437,-10.73459 1.860905,-16.1604 -0.05881,-4.76864 0.373125,-9.57799 -0.01202,-14.33944 29.782342,-14.25032 21.229914,-15.5609 22.960814,1.91575 0.568305,5.02361 2.925532,9.6811 6.723166,13.0118 1.401623,1.1386 2.927914,3.35242 4.96947,3.44159 0.640727,0.028 2.007869,-1.58204 1.451687,-1.26271 -7.300134,4.19143 -14.41645,8.69518 -21.624675,13.04276 -3.194548,-2.15598 -5.295783,-4.57024 -6.838607,-8.17915 -1.873249,-4.64737 -0.872307,-9.84487 -2.828595,-14.41723 0,0 22.195958,-12.4795 22.195958,-12.4795 l 0,0 c 2.035504,4.63786 1.423531,9.62474 2.846846,14.44471 1.509213,3.69632 4.376608,5.39445 6.983795,8.21856 -15.13583,11.17909 -17.627443,21.43845 -28.796598,10.55383 -3.996464,-3.93434 -6.856414,-8.9685 -7.557818,-14.59306 -0.112231,-0.84946 -0.696905,-12.39899 -0.487316,-12.53306 7.346791,-4.6995 15.209961,-8.53814 22.814941,-12.80721 -0.296694,4.83042 0.0681,9.68631 -0.143099,14.52097 -0.138706,5.59021 -0.330964,11.21718 -1.58989,16.6902 -1.417455,5.49527 -3.045164,10.97192 -4.966113,16.29734 -7.946082,4.32366 -15.607994,9.21636 -23.838248,12.97098 -0.69963,0.31916 -1.428278,-0.65299 -1.972692,-1.1961 -3.619579,-3.61087 -3.542573,-9.94749 -4.306972,-14.54214 -1.099125,-11.13217 -0.997775,-22.36963 -2.658138,-33.4555 0,0 22.484989,-11.81114 22.484989,-11.81114 z"
           inkscape:connector-curvature="0" />
      </g>
      <path
         inkscape:connector-curvature="0"
         d="m 254.59202,315.13654 c -0.82315,-4.75113 -2.74985,-9.27371 -4.3006,-13.83011 -1.36829,-4.17943 -2.2377,-8.51459 -3.03862,-12.83498 -0.25307,-1.4797 -0.37989,-2.97567 -0.55717,-4.4651 -0.0298,-0.25047 -0.0599,-0.50097 -0.097,-0.75046 -0.0151,-0.10106 -0.15158,-0.25647 -0.0595,-0.30072 2.62633,-1.26167 5.33532,-2.34352 8.00297,-3.51528 -0.3371,3.22727 0.46794,6.34105 1.21186,9.44909 0.87622,3.73371 1.80237,7.48905 3.14919,11.08375 0.93421,2.51579 1.94136,4.97365 3.24972,7.31688 0.14038,0.29025 0.28075,0.58049 0.42112,0.87074 0,0 -7.81524,4.42995 -7.81524,4.42995 l 0,0 c -0.12939,-0.27632 -0.25879,-0.55264 -0.38818,-0.82896 -1.29996,-2.39826 -2.29768,-4.91019 -3.23851,-7.46997 -1.36961,-3.6241 -2.27078,-7.43276 -3.16752,-11.19761 -0.77218,-3.15592 -1.66847,-6.31075 -1.47808,-9.59655 10.3463,-6.11434 7.50151,-6.88731 8.61641,0.79879 0.73235,4.30121 1.56091,8.61284 2.86022,12.78102 1.56142,4.64952 3.47558,9.2119 4.64297,13.97614 0,0 -8.01407,4.08338 -8.01407,4.08338 z"
         id="path3069"
         style="opacity:0.98000004;fill:#2aff80;fill-opacity:1;stroke:#2aff80;stroke-opacity:0.57627115" />
      <path
         inkscape:connector-curvature="0"
         d="m 257.63482,681.57396 c 0.0836,-3.95959 0.0544,-7.92064 0.0383,-11.8808 0.006,-4.2073 0.0323,-8.41422 0.0118,-12.62155 -0.008,-0.5296 -0.0134,-1.05924 -0.0238,-1.58879 -0.007,-0.34705 -0.0158,-0.69406 -0.0279,-1.04096 -0.007,-0.20071 -0.23348,-0.52046 -0.0493,-0.6005 8.31204,-3.61165 8.08242,-6.32282 8.05427,-2.59623 -0.004,2.21565 -0.0234,4.43123 -0.0278,6.64688 -0.0614,2.40066 0.13053,4.81242 -0.0767,7.2067 -0.16897,1.89595 -1.12345,3.42605 -2.39574,4.77888 -1.34537,1.22413 -2.86048,2.22623 -4.37274,3.22624 -1.59864,1.13082 -1.9232,2.85383 -2.13201,4.68103 -0.26404,3.15811 -0.23559,4.07271 2.42314,5.96208 6.29685,2.79899 13.3422,2.78957 20.09884,3.1245 10.96981,0.35034 21.96134,0.59802 32.9273,-0.0349 7.11095,-0.4104 14.71764,-1.22711 21.79422,-1.91813 10.75415,-1.07756 21.47497,-2.47527 32.14795,-4.177 7.60269,-1.21219 12.25982,-1.87911 19.63886,-4.09296 3.19807,-0.95948 6.29879,-2.21773 9.44819,-3.32659 3.01454,-1.53597 6.11397,-2.91564 9.04362,-4.60792 0.81142,-0.4687 1.34501,-1.32049 2.12322,-1.84248 2.95652,-1.98307 5.98345,-3.86356 9.05839,-5.65754 8.69188,-5.07101 15.57434,-9.20966 24.5936,-12.80171 2.66903,-1.06298 5.43679,-1.85902 8.15518,-2.78853 7.70568,-2.02561 15.95449,-3.7362 23.84336,-1.55924 3.34589,0.9233 4.34918,1.74274 7.24001,3.42701 2.47198,1.65722 4.43315,3.78259 6.18359,6.15584 0.92201,1.25006 1.1532,1.84967 2.3084,2.84212 0.39149,0.33634 0.8508,0.58453 1.27621,0.8768 3.26647,1.80835 6.79715,3.04888 10.36904,4.09478 4.03668,1.30203 8.2366,1.86814 12.44684,2.21748 2.58438,0.17395 5.21271,0.43833 7.68091,-0.49075 -2.32979,1.30466 -4.65253,2.622 -6.98938,3.91399 -0.23949,0.1324 0.4723,-0.27769 0.69639,-0.43475 0.61985,-0.43446 1.09883,-1.09815 1.74824,-1.48204 2.7756,-1.64074 5.59115,-3.21292 8.38672,-4.81938 1.88775,-0.29623 2.45114,1.48545 2.76163,2.98915 0.27354,2.20168 0.2287,4.43116 0.23074,6.64626 -0.062,1.8404 -0.10092,3.65446 0.89088,5.25881 1.34252,1.32468 2.90383,2.41136 4.45946,3.46914 1.07468,0.88454 2.50182,2.31985 3.96752,1.5588 -12.92638,7.40025 -6.6177,5.21893 -5.78886,1.12406 -0.0675,-1.93758 -1.77554,-2.98639 -3.14446,-4.08589 -1.76528,-1.49961 -3.47687,-3.03864 -5.24225,-4.53536 -1.98362,-1.65657 -2.9785,-4.09594 -4.11045,-6.35177 -1.48315,-2.9886 -1.8798,-6.35124 -2.71338,-9.55424 -0.79797,-2.41511 -1.56857,-5.04072 -3.2731,-7.01331 -1.01949,-1.17982 -2.09307,-1.80303 -3.369,-2.70308 -4.85815,-3.83089 -10.43155,-6.39854 -16.09684,-8.76518 -4.90338,-2.04139 -9.88324,-3.9172 -14.21654,-7.07604 -5.20701,-3.79575 -9.32849,-8.74888 -13.48275,-13.60409 -1.14167,-1.46525 -2.28333,-2.93051 -3.42499,-4.39576 0,0 7.26667,-4.3234 7.26667,-4.3234 l 0,0 c 1.10959,1.46748 2.21919,2.93497 3.32878,4.40245 4.10022,4.81471 8.16912,9.66761 13.38842,13.34375 4.37034,3.07818 9.3892,4.88755 14.30272,6.86246 2.00219,0.80046 4.94697,1.92089 6.94414,2.91314 3.3187,1.64881 6.37908,3.82029 9.42239,5.91257 1.48857,1.0541 2.42705,1.56434 3.59664,2.93739 1.75565,2.06107 2.53394,4.78893 3.38049,7.29293 0.8555,3.12785 1.33164,6.39683 2.71167,9.34746 1.08207,2.15612 2.02212,4.47614 3.96193,6.01986 1.76069,1.48841 3.4091,3.0886 5.2147,4.52393 1.64158,1.31177 3.36034,2.61638 3.62011,4.85746 -0.22823,5.0461 -5.30472,6.03085 -9.47009,8.3167 -1.73332,-0.0574 -3.07586,-1.07484 -4.34562,-2.17764 -1.62771,-1.15753 -3.33246,-2.27253 -4.66516,-3.77593 -1.08165,-1.75931 -1.2198,-3.67456 -1.09726,-5.71198 0.006,-2.15912 0.0446,-4.32773 -0.1852,-6.47758 -0.20627,-1.18504 -0.43428,-2.33282 -1.84901,-1.59578 2.33798,-1.37312 4.67302,-2.75126 7.01393,-4.11938 0.21437,-0.12528 -0.43521,0.24222 -0.63415,0.3908 -0.98803,0.73793 -0.16669,0.26485 -1.11266,1.11825 -2.62386,2.36708 -8.46699,0.80268 -9.18786,5.28893 -2.57847,0.59243 -5.19117,0.41552 -7.80795,0.15851 -4.2392,-0.42914 -8.45747,-1.0773 -12.53,-2.3745 -3.64355,-1.11269 -7.28233,-2.3635 -10.57219,-4.31901 -0.45246,-0.34422 -0.94027,-0.64636 -1.35737,-1.03267 -1.21656,-1.12675 -1.32694,-1.59489 -2.29058,-2.9587 -1.63273,-2.31078 -3.49347,-4.35292 -5.87083,-5.93711 -1.04958,-0.60543 -2.04966,-1.30621 -3.14875,-1.81628 -8.60997,-3.99576 -18.29145,-2.12956 -27.0666,0.21248 -11.16775,3.86326 -5.28473,1.54711 -16.7373,6.74362 -0.75685,0.34341 -1.55891,0.59829 -2.27535,1.01955 -11.26534,6.62402 -21.75052,14.65783 -33.82521,19.83291 -3.16644,1.09058 -6.28548,2.32995 -9.49932,3.27174 -7.27121,2.13076 -12.16578,2.83463 -19.64288,4.00304 -10.65652,1.66525 -21.36103,3.0097 -32.09261,4.08749 -7.08957,0.70549 -14.8445,1.54655 -21.96894,1.98805 -11.09021,0.68727 -22.20366,0.48411 -33.30335,0.22572 -6.99656,-0.25655 -14.37425,-0.1103 -20.81576,-3.25655 -2.70954,-2.04691 -3.2153,-3.39565 -2.91678,-6.74386 0.15301,-1.9486 0.32427,-3.92538 1.79856,-5.37176 1.42278,-1.09603 3.03633,-1.94407 4.42413,-3.09421 1.2758,-1.16281 2.41883,-2.45589 2.65354,-4.23599 0.38785,-2.34463 0.041,-4.76033 0.165,-7.12726 -0.004,-2.2062 -0.0242,-4.41233 -0.0278,-6.61854 -0.0299,-3.93037 -0.23917,-0.76361 8.05427,-5.61147 0.0301,-0.0176 -0.0201,0.0673 -0.0227,0.10197 -0.0138,0.18261 -0.0204,0.36572 -0.0266,0.54875 -0.012,0.35637 -0.021,0.71285 -0.0279,1.06936 -0.0104,0.53765 -0.0159,1.07539 -0.0238,1.61309 -0.0205,4.20333 0.006,8.40625 0.0118,12.60955 -0.0159,3.94715 -0.0458,7.89522 0.0383,11.84177 0,0 -7.98938,4.0708 -7.98938,4.0708 z"
         id="path3073"
         style="opacity:0.98000004;fill:#2aff80;fill-opacity:1;stroke:#2aff80;stroke-opacity:0.57627115" />
    </g>
  </g>
</svg>
